<?xml version="1.0" encoding="utf-8"?>
<!-- Generator: Adobe Illustrator 19.1.0, SVG Export Plug-In . SVG Version: 6.00 Build 0)  -->
<svg version="1.1" id="Layer_1" xmlns="http://www.w3.org/2000/svg" xmlns:xlink="http://www.w3.org/1999/xlink" x="0px" y="0px"
	 viewBox="-290 382 30 30" style="enable-background:new -290 382 30 30;" xml:space="preserve">
<style type="text/css">
	.st0{fill:#5FA9DD;}
</style>
<path class="st0" d="M-261.4,389.1c-1,0.4-2,0.7-3.1,0.9c1.1-0.7,2-1.7,2.4-3c-1,0.6-2.2,1.1-3.4,1.3c-1-1.1-2.4-1.7-4-1.7
	c-3,0-5.4,2.4-5.4,5.4c0,0.4,0,0.8,0.1,1.2c-4.5-0.2-8.5-2.4-11.2-5.7c-0.5,0.8-0.7,1.7-0.7,2.7c0,1.9,1,3.5,2.4,4.5
	c-0.9,0-1.7-0.3-2.5-0.7v0.1c0,2.6,1.9,4.8,4.3,5.3c-0.5,0.1-0.9,0.2-1.4,0.2c-0.3,0-0.7,0-1-0.1c0.7,2.2,2.7,3.7,5.1,3.8
	c-1.9,1.5-4.2,2.3-6.7,2.3c-0.4,0-0.9,0-1.3-0.1c2.4,1.5,5.2,2.4,8.3,2.4c10,0,15.4-8.3,15.4-15.4c0-0.2,0-0.5,0-0.7
	C-263,391.1-262.1,390.2-261.4,389.1"/>
</svg>
